<svg width="352" height="347" viewBox="0 0 352 347" fill="none" xmlns="http://www.w3.org/2000/svg">
<path d="M54.839 199.977C-73.3707 268.094 38.6536 400.655 231.518 323.689C424.383 246.723 379.972 -77.4942 139.27 17.163C-129.89 123.011 215.101 114.831 54.839 199.977Z" fill="#3F3D56"/>
<g clip-path="url(#clip0)">
<path d="M5.93226 116.531C5.16629 116.771 4.35064 116.805 3.56746 116.629C2.78428 116.453 2.06123 116.075 1.47116 115.531C0.881081 114.988 0.444817 114.298 0.206307 113.533C-0.0322032 112.767 -0.0645343 111.952 0.112573 111.17C2.76991 100.125 12.8743 73.1151 49.6852 61.7547C65.6303 56.8338 80.9218 56.7498 95.1163 61.5032C106.794 65.3975 114.546 71.4916 118.254 74.437C119.196 75.1817 119.803 76.2698 119.943 77.4619C120.082 78.654 119.741 79.8525 118.996 80.7938C118.986 80.8054 118.977 80.8171 118.968 80.8286C118.202 81.7728 117.096 82.3786 115.888 82.5157C114.68 82.6527 113.466 82.3099 112.508 81.5612C105.79 76.2728 85.4021 60.2068 52.3596 70.4042C20.0956 80.3614 11.3315 103.652 9.05827 113.181C8.88564 113.968 8.5044 114.694 7.95446 115.283C7.40451 115.873 6.70608 116.304 5.93227 116.531L5.93226 116.531Z" fill="#F9A826"/>
<path d="M106.263 179.089C105.898 179.207 105.519 179.278 105.135 179.301C76.3771 180.848 58.0803 156.98 57.3291 155.985L57.1898 155.755C56.7313 155.044 45.6603 138.216 50.5341 124.852C52.7728 118.742 57.7238 114.453 65.2915 112.117C72.3298 109.945 78.0891 110.588 82.9913 114.085C87.0109 116.934 89.587 121.183 92.0838 125.287C97.2768 133.806 100.459 138.141 110.33 135.64C114.664 134.541 116.687 131.156 117.612 128.519C120.101 121.344 117.895 111.561 112.058 104.16C104.518 94.5583 83.4168 78.6104 57.3814 86.6453C46.2634 90.0765 37.1645 96.8381 31.0712 106.149C26.0233 113.875 23.0888 123.472 23.0244 132.421C22.9231 149.085 36.5928 171.007 36.7224 171.206C37.0371 171.709 37.2496 172.269 37.3478 172.854C37.4459 173.439 37.4278 174.037 37.2943 174.615C37.1609 175.193 36.9149 175.739 36.5702 176.222C36.2255 176.705 35.789 177.116 35.2856 177.43C35.2716 177.439 35.2576 177.447 35.2436 177.456C34.2121 178.099 32.969 178.31 31.7828 178.045C30.5965 177.78 29.5623 177.059 28.9034 176.038C28.2864 175.036 13.6902 151.661 13.8078 132.403C13.9715 111.528 26.6688 86.6147 54.6973 77.9647C67.6527 73.9664 81.2676 74.6384 94.0799 79.8866C104.01 83.9791 113.201 90.7539 119.277 98.4899C127.038 108.364 129.773 121.29 126.24 131.378C123.884 138.103 119.008 142.744 112.527 144.403C95.6374 148.695 89.0208 137.888 84.1952 130.005C79.24 121.923 76.4991 118.133 67.9348 120.777C63.2323 122.228 60.3352 124.553 59.1167 127.895C57.4587 132.462 59.0301 138.316 60.6402 142.421C60.6569 142.463 60.6736 142.506 60.6904 142.549C62.7547 147.766 65.9762 152.447 70.1125 156.24C76.7386 162.353 89.0395 171.068 104.717 170.228C105.916 170.153 107.095 170.557 107.995 171.352C108.895 172.146 109.443 173.265 109.517 174.462C109.518 174.476 109.519 174.491 109.52 174.505C109.557 175.521 109.258 176.52 108.669 177.348C108.08 178.177 107.235 178.789 106.263 179.089L106.263 179.089Z" fill="#F9A826"/>
<path d="M71.3906 187.67C70.7911 187.855 70.1603 187.917 69.5362 187.852C68.9121 187.787 68.3077 187.596 67.7596 187.291C53.5758 179.262 43.6186 168.464 36.4485 153.329L36.4196 153.236C31.9007 143.144 29.1805 127.727 35.181 114.696C39.6108 105.081 47.9261 98.3225 59.8538 94.6414C73.9615 90.2876 87.0975 93.4931 97.8785 103.867C102.782 108.655 106.769 114.297 109.644 120.515C110.103 121.634 110.102 122.888 109.642 124.006C109.182 125.124 108.3 126.016 107.186 126.49C106.073 126.963 104.818 126.98 103.692 126.536C102.567 126.092 101.662 125.223 101.172 124.118C98.7375 118.928 95.3759 114.225 91.2523 110.24C82.9423 102.342 73.2821 100.006 62.5067 103.332C53.195 106.205 46.783 111.286 43.5007 118.434C38.7672 128.722 41.2043 141.568 44.7406 149.475C51.0629 162.861 59.8324 172.356 72.316 179.409C72.8317 179.7 73.285 180.089 73.6502 180.555C74.0153 181.02 74.2851 181.553 74.4441 182.123C74.6031 182.693 74.6482 183.288 74.5768 183.875C74.5055 184.462 74.3191 185.03 74.0282 185.545C74.0167 185.565 74.005 185.586 73.9932 185.606C73.4117 186.592 72.4842 187.328 71.3906 187.67V187.67Z" fill="#F9A826"/>
<path d="M72.8843 142.424C76.1245 142.424 78.7513 139.8 78.7513 136.563C78.7513 133.326 76.1245 130.701 72.8843 130.701C69.644 130.701 67.0172 133.326 67.0172 136.563C67.0172 139.8 69.644 142.424 72.8843 142.424Z" fill="#E6E6E6"/>
<path d="M178.673 208.137C178.551 208.137 178.43 208.128 178.311 208.11C178 208.064 177.701 207.957 177.432 207.794C177.163 207.632 176.929 207.419 176.743 207.166L173.52 202.8C173.334 202.547 173.199 202.261 173.124 201.956C173.048 201.652 173.033 201.335 173.08 201.025C173.127 200.715 173.235 200.417 173.397 200.148C173.559 199.88 173.773 199.646 174.025 199.46L201.578 179.158C201.831 178.972 202.118 178.837 202.423 178.762C202.728 178.686 203.044 178.671 203.355 178.718C203.665 178.765 203.963 178.873 204.232 179.035C204.501 179.197 204.736 179.41 204.922 179.663L208.144 184.028C208.521 184.538 208.679 185.176 208.585 185.803C208.49 186.429 208.15 186.992 207.64 187.369L180.087 207.67C179.678 207.973 179.182 208.137 178.673 208.137V208.137Z" fill="#F9A826"/>
<path d="M198.24 191.791L194.023 186.079C193.676 185.608 193.53 185.019 193.617 184.441C193.705 183.863 194.019 183.343 194.49 182.996L210.625 168.872C211.096 168.525 211.686 168.379 212.264 168.466C212.843 168.554 213.364 168.867 213.711 169.338L221.423 178.542C221.77 179.012 221.916 179.602 221.829 180.18C221.741 180.758 221.428 181.278 220.956 181.625L201.327 192.257C200.856 192.604 200.266 192.75 199.687 192.663C199.108 192.576 198.588 192.262 198.24 191.791Z" fill="#2F2E41"/>
<path d="M224.166 252.875H218.737C218.103 252.874 217.495 252.622 217.047 252.175C216.599 251.727 216.347 251.12 216.346 250.486V205.277C216.347 204.643 216.599 204.036 217.047 203.588C217.495 203.14 218.103 202.889 218.737 202.888H224.166C224.8 202.889 225.408 203.14 225.856 203.588C226.304 204.036 226.557 204.643 226.557 205.277V250.486C226.557 251.12 226.304 251.727 225.856 252.175C225.408 252.622 224.8 252.874 224.166 252.875V252.875Z" fill="#F9A826"/>
<path d="M234.905 252.875H229.475C228.842 252.874 228.234 252.622 227.786 252.175C227.337 251.727 227.085 251.12 227.084 250.486V205.277C227.085 204.643 227.337 204.036 227.786 203.588C228.234 203.14 228.842 202.889 229.475 202.888H234.905C235.539 202.889 236.147 203.14 236.595 203.588C237.043 204.036 237.295 204.643 237.296 205.277V250.486C237.295 251.12 237.043 251.727 236.595 252.175C236.147 252.622 235.539 252.874 234.905 252.875V252.875Z" fill="#F9A826"/>
<path d="M285.814 252.176H166.614V253H285.814V252.176Z" fill="#3F3D56"/>
<path d="M224.476 149.607C235.35 149.607 244.164 140.801 244.164 129.938C244.164 119.075 235.35 110.269 224.476 110.269C213.603 110.269 204.789 119.075 204.789 129.938C204.789 140.801 213.603 149.607 224.476 149.607Z" fill="#F9A826"/>
<path d="M254.956 229.694L243.554 179.107V167.155C243.554 166.375 243.244 165.627 242.692 165.076C242.141 164.524 241.392 164.215 240.612 164.215H229.69V156.529C229.69 156.143 229.613 155.76 229.466 155.404C229.318 155.047 229.101 154.723 228.828 154.45C228.554 154.177 228.23 153.96 227.873 153.812C227.516 153.665 227.133 153.589 226.747 153.589H220.861C220.474 153.589 220.092 153.665 219.735 153.812C219.378 153.96 219.053 154.177 218.78 154.45C218.507 154.723 218.29 155.047 218.142 155.404C217.994 155.76 217.918 156.143 217.918 156.529V164.215H206.996C206.215 164.215 205.467 164.524 204.915 165.076C204.363 165.627 204.053 166.375 204.053 167.155V230.032C204.053 230.409 204.126 230.782 204.268 231.131C204.401 231.76 204.74 232.325 205.232 232.738C205.724 233.152 206.339 233.389 206.982 233.412L253.121 234.949C255.878 235.022 257.129 231.439 254.956 229.694Z" fill="#2F2E41"/>
<path d="M224.666 136.926C223.45 136.892 221.936 136.85 220.77 135.999C220.423 135.735 220.138 135.399 219.935 135.013C219.731 134.628 219.615 134.203 219.593 133.768C219.572 133.458 219.623 133.148 219.741 132.862C219.86 132.575 220.044 132.32 220.277 132.116C220.887 131.602 221.777 131.482 222.734 131.763L221.741 124.513L222.47 124.413L223.637 132.936L223.029 132.657C222.323 132.333 221.354 132.169 220.752 132.677C220.604 132.81 220.489 132.975 220.416 133.16C220.342 133.344 220.312 133.544 220.328 133.742C220.346 134.065 220.434 134.382 220.585 134.669C220.736 134.956 220.947 135.207 221.204 135.405C222.112 136.067 223.318 136.153 224.686 136.191L224.666 136.926Z" fill="#2F2E41"/>
<path d="M218.136 125.138H214.174V125.873H218.136V125.138Z" fill="#2F2E41"/>
<path d="M230.644 125.138H226.681V125.873H230.644V125.138Z" fill="#2F2E41"/>
<path d="M207.236 117.225C203.738 115.107 202.092 111.091 202.088 107.118C202.087 105.001 202.547 102.908 203.437 100.987C204.327 99.065 205.626 97.3604 207.243 95.9914C210.845 92.8791 215.642 91.356 220.328 90.969C225.998 90.5008 231.631 91.732 237.046 93.3035C242.844 94.9862 248.525 97.1034 254.46 98.2814C260.22 99.4246 265.994 99.5373 271.665 97.8842C276.898 96.3584 282.21 93.6623 287.8 94.1296C292.629 94.5331 296.295 97.743 298.762 101.709C303.659 109.582 304.045 120.15 311.088 126.707C314.132 129.541 318.099 130.826 322.063 131.785C325.865 132.706 329.92 133.295 333.408 135.158C337.149 137.155 339.414 140.91 338.828 145.211C338.164 150.097 334.684 154.302 330.853 157.172C326.819 160.155 322.171 162.202 317.246 163.164C312.321 164.125 307.243 163.978 302.382 162.731C292.217 160.037 283.957 152.166 273.127 151.673C267.085 151.398 261.137 153.042 255.096 152.77C250.909 152.581 246.403 151.034 243.487 147.924C242.088 146.468 241.213 144.589 241.002 142.581C240.936 141.881 239.832 141.874 239.898 142.581C240.312 146.976 243.55 150.221 247.414 152.006C249.447 152.938 251.619 153.535 253.844 153.774C256.8 154.101 259.814 153.792 262.756 153.47C265.867 153.129 268.982 152.709 272.118 152.747C274.98 152.792 277.816 153.296 280.519 154.24C285.708 156.018 290.382 158.968 295.339 161.265C300.137 163.489 305.161 164.867 310.475 164.902C315.597 164.927 320.664 163.842 325.325 161.72C329.915 159.631 334.229 156.512 337.087 152.309C339.766 148.367 341.173 143.197 338.761 138.784C336.871 135.326 333.267 133.576 329.633 132.499C325.604 131.304 321.393 130.759 317.449 129.271C315.388 128.531 313.492 127.395 311.868 125.927C310.126 124.238 308.69 122.259 307.626 120.079C305.368 115.679 304.215 110.846 302.313 106.301C300.552 102.091 298.141 97.8476 294.259 95.2529C292.173 93.874 289.748 93.0921 287.249 92.9921C284.483 92.8671 281.735 93.5014 279.106 94.3006C276.325 95.1464 273.611 96.2028 270.808 96.9812C267.856 97.8024 264.796 98.1675 261.734 98.064C255.435 97.859 249.351 95.9897 243.388 94.1051C232.942 90.8035 221.325 87.269 210.823 92.3582C206.731 94.3412 203.265 97.6682 201.803 102.037C200.51 105.902 200.689 110.411 202.682 114.013C203.627 115.726 205.005 117.161 206.679 118.177C207.288 118.545 207.843 117.592 207.236 117.225L207.236 117.225Z" fill="#2F2E41"/>
<path d="M237.672 215.515H232.243C231.609 215.514 231.001 215.262 230.553 214.814C230.105 214.366 229.852 213.759 229.852 213.126V181.793C229.852 181.16 230.105 180.553 230.553 180.105C231.001 179.657 231.609 179.405 232.243 179.405H237.672C238.306 179.405 238.914 179.657 239.362 180.105C239.811 180.553 240.063 181.16 240.063 181.793V213.126C240.063 213.759 239.811 214.366 239.362 214.814C238.914 215.262 238.306 215.514 237.672 215.515V215.515Z" fill="#F9A826"/>
<path d="M216.714 112.358C216.835 113.222 217.195 114.035 217.754 114.705C218.313 115.375 219.048 115.876 219.876 116.151C220.705 116.426 221.593 116.465 222.443 116.262C223.292 116.06 224.067 115.624 224.682 115.004L223.76 114.761C224.274 116.076 225.136 117.227 226.255 118.09C227.373 118.953 228.705 119.497 230.108 119.663C231.511 119.829 232.933 119.611 234.222 119.032C235.511 118.453 236.619 117.536 237.426 116.377C237.842 115.8 236.885 115.249 236.473 115.821C235.777 116.794 234.833 117.563 233.738 118.048C232.643 118.534 231.439 118.717 230.249 118.578C229.06 118.44 227.929 117.986 226.975 117.263C226.021 116.54 225.278 115.575 224.824 114.468C224.796 114.377 224.745 114.294 224.677 114.227C224.608 114.161 224.523 114.113 224.431 114.089C224.338 114.065 224.241 114.064 224.148 114.088C224.056 114.112 223.971 114.159 223.901 114.225C223.423 114.708 222.816 115.046 222.153 115.198C221.49 115.35 220.796 115.31 220.155 115.084C219.513 114.858 218.949 114.454 218.528 113.919C218.107 113.385 217.847 112.742 217.779 112.065C217.68 111.365 216.617 111.663 216.714 112.358V112.358Z" fill="#2F2E41"/>
<path d="M181.928 190.633L181.813 190.711L179.676 187.563C179.514 187.324 179.306 187.119 179.064 186.96C178.823 186.801 178.552 186.691 178.268 186.636C177.984 186.582 177.691 186.584 177.408 186.642C177.125 186.7 176.855 186.814 176.616 186.976V186.976L169.939 191.498C169.7 191.66 169.494 191.868 169.335 192.109C169.176 192.351 169.066 192.621 169.012 192.905C168.957 193.189 168.959 193.481 169.017 193.764C169.076 194.047 169.189 194.316 169.352 194.555L181.072 211.828C181.235 212.067 181.443 212.272 181.684 212.431C181.926 212.59 182.197 212.7 182.481 212.755C182.765 212.809 183.057 212.807 183.341 212.749C183.624 212.69 183.893 212.577 184.133 212.415V212.415L190.809 207.893C191.049 207.731 191.254 207.523 191.413 207.281C191.572 207.04 191.682 206.769 191.737 206.486C191.791 206.202 191.79 205.91 191.731 205.627C191.673 205.343 191.559 205.075 191.397 204.835V204.835L183.333 192.952L183.448 192.874L181.928 190.633Z" fill="#3F3D56"/>
<path d="M177.121 187.793L176.277 188.365C176.381 188.434 176.465 188.527 176.524 188.636C176.583 188.745 176.614 188.867 176.615 188.991C176.615 189.115 176.585 189.237 176.527 189.347C176.469 189.456 176.385 189.55 176.282 189.62L172.58 192.127C172.478 192.197 172.359 192.24 172.236 192.253C172.112 192.266 171.988 192.249 171.873 192.203C171.758 192.156 171.656 192.082 171.576 191.987C171.496 191.892 171.441 191.779 171.415 191.658L170.627 192.192C170.454 192.309 170.306 192.459 170.191 192.634C170.076 192.808 169.996 193.004 169.957 193.209C169.917 193.414 169.919 193.625 169.961 193.83C170.003 194.034 170.085 194.229 170.203 194.402V194.402L181.53 211.095C181.648 211.268 181.798 211.416 181.973 211.531C182.147 211.646 182.343 211.726 182.549 211.765C182.754 211.804 182.965 211.803 183.17 211.761C183.375 211.719 183.569 211.637 183.743 211.519L190.236 207.121C190.586 206.885 190.827 206.519 190.906 206.104C190.986 205.69 190.898 205.261 190.661 204.911V204.911L179.333 188.218C179.215 188.045 179.065 187.897 178.89 187.782C178.716 187.667 178.52 187.587 178.315 187.548C178.109 187.509 177.898 187.51 177.693 187.552C177.488 187.594 177.294 187.676 177.121 187.794V187.794L177.121 187.793Z" fill="white"/>
</g>
<defs>
<clipPath id="clip0">
<rect width="340" height="195" fill="white" transform="translate(0 58)"/>
</clipPath>
</defs>
</svg>
