<svg width="371" height="376" viewBox="0 0 371 376" fill="none" xmlns="http://www.w3.org/2000/svg">
<path d="M26.5001 162C-101.71 230.117 278 472.5 326.5 333C375 193.5 435.203 -74.6572 194.5 20C-74.6593 125.848 186.762 76.8538 26.5001 162Z" fill="#3F3D56"/>
<g clip-path="url(#clip0)">
<path d="M285.265 165.417C246.161 165.417 215.53 158.325 215.53 149.271C215.53 143.843 226.384 139 245.308 135.984C245.375 135.973 245.445 135.975 245.511 135.991C245.578 136.006 245.641 136.035 245.697 136.075C245.752 136.115 245.799 136.166 245.835 136.225C245.871 136.283 245.895 136.348 245.906 136.416C245.917 136.484 245.914 136.553 245.898 136.619C245.882 136.686 245.853 136.749 245.813 136.805C245.772 136.86 245.721 136.907 245.663 136.943C245.604 136.978 245.539 137.002 245.471 137.012C227.645 139.854 216.571 144.551 216.571 149.271C216.571 157.458 248.029 164.375 285.265 164.375C322.501 164.375 353.959 157.458 353.959 149.271C353.959 144.531 342.814 139.822 324.874 136.983C324.738 136.961 324.616 136.886 324.535 136.774C324.454 136.663 324.421 136.524 324.442 136.387C324.464 136.251 324.538 136.129 324.65 136.048C324.761 135.967 324.9 135.933 325.036 135.954C344.079 138.968 355 143.822 355 149.271C355 158.325 324.369 165.417 285.265 165.417Z" fill="#CCCCCC"/>
<path d="M250.669 168.457C254.207 174.521 259.274 179.548 265.363 183.036C271.452 186.524 278.349 188.351 285.365 188.333C292.381 188.316 299.27 186.454 305.341 182.935C311.412 179.417 316.454 174.364 319.961 168.283C296.885 169.612 273.752 169.67 250.669 168.457Z" fill="#E6E6E6"/>
<path d="M323.797 157.147C325.503 151.162 325.793 144.862 324.644 138.745C323.496 132.629 320.941 126.863 317.182 121.906C313.422 116.948 308.561 112.934 302.984 110.182C297.406 107.429 291.265 106.014 285.047 106.048C278.828 106.081 272.703 107.563 267.155 110.375C261.608 113.188 256.79 117.254 253.085 122.252C249.379 127.25 246.886 133.043 245.804 139.172C244.722 145.3 245.08 151.597 246.85 157.564C272.409 160.756 298.274 160.616 323.797 157.147Z" fill="#E6E6E6"/>
<path d="M85.1667 9.68751C85.1665 8.84005 84.9367 8.0085 84.5018 7.28134C84.067 6.55418 83.4432 5.95861 82.6971 5.55801C81.9509 5.1574 81.1101 4.96675 80.2643 5.00634C79.4184 5.04592 78.5991 5.31426 77.8935 5.7828C77.1879 6.25135 76.6224 6.90257 76.2573 7.66717C75.8921 8.43177 75.7408 9.28115 75.8196 10.1249C75.8984 10.9687 76.2043 11.7753 76.7048 12.459C77.2052 13.1426 77.8815 13.6777 78.6616 14.0072V38.3333H82.3045V14.0072C83.1531 13.6486 83.8772 13.0475 84.3862 12.2792C84.8953 11.5109 85.1668 10.6094 85.1667 9.68751Z" fill="#CCCCCC"/>
<path d="M111.449 126.354H111.447C110.047 126.353 108.662 126.069 107.374 125.519C106.086 124.97 104.921 124.166 103.95 123.157C102.98 122.147 102.222 120.951 101.723 119.642C101.224 118.333 100.994 116.936 101.047 115.536C101.255 110.014 106.033 105.521 111.697 105.521H140.29L163.819 95.0963C164.45 94.8177 165.166 94.8009 165.81 95.0496C166.453 95.2983 166.972 95.7922 167.252 96.423L173.572 110.711C173.85 111.342 173.867 112.059 173.619 112.703C173.37 113.347 172.876 113.866 172.246 114.146L149.071 124.414C146.776 125.434 144.296 125.974 141.785 126L111.449 126.354Z" fill="#CCCCCC"/>
<path d="M42.1376 181.22C42.0019 181.22 41.8666 181.209 41.7329 181.186L26.3443 178.557H26.3444C26.0365 178.505 25.7422 178.391 25.4788 178.223C25.2154 178.055 24.9883 177.836 24.8109 177.578C24.6335 177.321 24.5093 177.031 24.4456 176.725C24.382 176.419 24.3801 176.103 24.4403 175.796L36.4855 114.311C36.939 111.656 38.4279 109.29 40.6245 107.734C42.8211 106.178 45.5455 105.558 48.1984 106.012C50.8513 106.466 53.2154 107.956 54.7706 110.154C56.3257 112.353 56.9446 115.079 56.4911 117.734L44.425 179.326C44.324 179.859 44.0401 180.34 43.6224 180.686C43.2048 181.032 42.6796 181.221 42.1376 181.22Z" fill="#CCCCCC"/>
<path d="M33.9062 194.583C39.0797 194.583 43.2736 190.386 43.2736 185.208C43.2736 180.031 39.0797 175.833 33.9062 175.833C28.7327 175.833 24.5388 180.031 24.5388 185.208C24.5388 190.386 28.7327 194.583 33.9062 194.583Z" fill="#E6E6E6"/>
<path d="M79.35 104.832C98.6068 104.832 114.218 89.2085 114.218 69.936C114.218 50.6636 98.6068 35.0402 79.35 35.0402C60.0932 35.0402 44.4824 50.6636 44.4824 69.936C44.4824 89.2085 60.0932 104.832 79.35 104.832Z" fill="#E6E6E6"/>
<path d="M79.35 104.832C98.6068 104.832 114.218 89.2085 114.218 69.936C114.218 50.6636 98.6068 35.0402 79.35 35.0402C60.0932 35.0402 44.4824 50.6636 44.4824 69.936C44.4824 89.2085 60.0932 104.832 79.35 104.832Z" fill="#E6E6E6"/>
<path d="M79.3498 96.4985C94.008 96.4985 105.891 84.6061 105.891 69.936C105.891 55.266 94.008 43.3735 79.3498 43.3735C64.6916 43.3735 52.8088 55.266 52.8088 69.936C52.8088 84.6061 64.6916 96.4985 79.3498 96.4985Z" fill="#F9A826"/>
<path d="M82.4529 81.0865C80.7324 81.0387 78.5913 80.9789 76.9417 79.773C76.4505 79.3991 76.0469 78.9223 75.7593 78.376C75.4716 77.8296 75.3068 77.2269 75.2764 76.6101C75.2465 76.1717 75.3184 75.7324 75.4863 75.3264C75.6543 74.9204 75.9138 74.5588 76.2445 74.2699C77.1061 73.5413 78.3641 73.3704 79.7199 73.7691L78.3153 63.4954L79.3464 63.354L80.9978 75.4321L80.1367 75.0367C79.1384 74.5784 77.768 74.3452 76.9164 75.0654C76.7073 75.2537 76.5444 75.4877 76.4403 75.7493C76.3363 76.0108 76.2939 76.2929 76.3165 76.5735C76.3418 77.0326 76.4655 77.4808 76.6793 77.8878C76.8932 78.2947 77.1921 78.6508 77.5557 78.9317C78.8394 79.8702 80.5461 79.9912 82.4818 80.0454L82.4529 81.0865Z" fill="#2F2E41"/>
<path d="M73.2155 64.3814H67.6099V65.4231H73.2155V64.3814Z" fill="#2F2E41"/>
<path d="M90.9096 64.3814H85.304V65.4231H90.9096V64.3814Z" fill="#2F2E41"/>
<path opacity="0.2" d="M61.4878 70.1042C61.4882 63.757 63.7591 57.6197 67.8894 52.8031C72.0197 47.9865 77.7365 44.8089 84.005 43.8455C80.2174 43.2051 76.3361 43.3952 72.6292 44.4028C68.9222 45.4103 65.478 47.2113 62.5344 49.6812C59.5909 52.1511 57.2182 55.2311 55.5802 58.7084C53.9423 62.1857 53.0781 65.9774 53.0475 69.8216C53.0168 73.6658 53.8204 77.4709 55.4027 80.9739C56.985 84.477 59.3082 87.5945 62.212 90.1111C65.1158 92.6277 68.5308 94.4834 72.2212 95.5501C75.9117 96.6167 79.7894 96.8689 83.5867 96.2891C77.4069 95.2387 71.7979 92.0334 67.7532 87.2408C63.7084 82.4482 61.4889 76.3776 61.4878 70.1042Z" fill="black"/>
<path d="M105.891 181.302H52.809C50.5324 181.3 48.3498 180.393 46.74 178.782C45.1303 177.171 44.2247 174.987 44.2222 172.708V112.813C44.2247 110.534 45.1303 108.35 46.74 106.739C48.3498 105.128 50.5324 104.221 52.809 104.219H60.8753V106.563C60.8771 108.15 61.5082 109.673 62.6302 110.796C63.7522 111.919 65.2734 112.55 66.8601 112.552H91.8398C93.4265 112.55 94.9477 111.919 96.0697 110.796C97.1917 109.673 97.8228 108.15 97.8246 106.563V104.219H105.891C108.168 104.221 110.35 105.128 111.96 106.739C113.57 108.35 114.475 110.534 114.478 112.813V172.708C114.475 174.987 113.57 177.171 111.96 178.782C110.35 180.393 108.168 181.3 105.891 181.302Z" fill="#E6E6E6"/>
<path d="M113.013 238.854H92.1923V214.797L65.0002 173.07L82.4363 161.689L109.509 203.235C111.448 206.208 112.508 209.667 112.569 213.217L113.013 238.854Z" fill="#E6E6E6"/>
<path d="M76.3197 254.74H56.0237V193.802H76.3197V254.74Z" fill="#E6E6E6"/>
<path d="M101.727 199.531H56.9721C55.7993 199.53 54.6749 199.063 53.8457 198.233C53.0164 197.403 52.5499 196.278 52.5486 195.104V178.438C52.5499 177.264 53.0164 176.138 53.8457 175.309C54.6749 174.479 55.7993 174.012 56.9721 174.01H101.727C102.9 174.012 104.025 174.479 104.854 175.309C105.683 176.138 106.15 177.264 106.151 178.438V195.104C106.15 196.278 105.683 197.403 104.854 198.233C104.025 199.063 102.9 199.53 101.727 199.531Z" fill="#E6E6E6"/>
<path d="M116.652 248.49H92.4524V232.344H116.652C118.791 232.344 120.843 233.194 122.355 234.708C123.868 236.222 124.718 238.276 124.718 240.417C124.718 242.558 123.868 244.611 122.355 246.125C120.843 247.639 118.791 248.49 116.652 248.49Z" fill="#CCCCCC"/>
<path d="M80.2228 254.74H56.0237V238.594H80.2228C82.3622 238.594 84.4139 239.444 85.9266 240.958C87.4393 242.472 88.2892 244.526 88.2892 246.667C88.2892 248.808 87.4393 250.861 85.9266 252.375C84.4139 253.889 82.3622 254.74 80.2228 254.74Z" fill="#CCCCCC"/>
<path d="M104.682 130.781H85.4269C84.9438 130.781 84.4805 130.589 84.139 130.247C83.7974 129.905 83.6055 129.442 83.6055 128.958C83.6055 128.475 83.7974 128.011 84.139 127.669C84.4805 127.327 84.9438 127.135 85.4269 127.135H104.682C105.165 127.135 105.628 127.327 105.97 127.669C106.312 128.011 106.504 128.475 106.504 128.958C106.504 129.442 106.312 129.905 105.97 130.247C105.628 130.589 105.165 130.781 104.682 130.781Z" fill="white"/>
<path d="M104.682 137.292H85.4269C84.9438 137.292 84.4805 137.1 84.139 136.758C83.7974 136.416 83.6055 135.952 83.6055 135.469C83.6055 134.985 83.7974 134.522 84.139 134.18C84.4805 133.838 84.9438 133.646 85.4269 133.646H104.682C105.165 133.646 105.628 133.838 105.97 134.18C106.312 134.522 106.504 134.985 106.504 135.469C106.504 135.952 106.312 136.416 105.97 136.758C105.628 137.1 105.165 137.292 104.682 137.292Z" fill="white"/>
<path d="M137.491 255H23.5204C23.3824 255 23.25 254.945 23.1524 254.847C23.0548 254.75 23 254.617 23 254.479C23 254.341 23.0548 254.209 23.1524 254.111C23.25 254.013 23.3824 253.958 23.5204 253.958H137.491C137.629 253.958 137.761 254.013 137.859 254.111C137.956 254.209 138.011 254.341 138.011 254.479C138.011 254.617 137.956 254.75 137.859 254.847C137.761 254.945 137.629 255 137.491 255Z" fill="#3F3D56"/>
<path d="M174.938 110.208C180.111 110.208 184.305 106.011 184.305 100.833C184.305 95.6557 180.111 91.4583 174.938 91.4583C169.764 91.4583 165.57 95.6557 165.57 100.833C165.57 106.011 169.764 110.208 174.938 110.208Z" fill="#E6E6E6"/>
<path d="M177.8 138.594C176.972 138.593 176.178 138.263 175.593 137.677C175.008 137.092 174.678 136.297 174.677 135.469V22.9688C174.677 22.1399 175.006 21.3451 175.592 20.759C176.178 20.173 176.972 19.8438 177.8 19.8438C178.628 19.8438 179.422 20.173 180.008 20.759C180.593 21.3451 180.922 22.1399 180.922 22.9688V135.469C180.922 136.297 180.592 137.092 180.007 137.677C179.422 138.263 178.628 138.593 177.8 138.594Z" fill="#3F3D56"/>
<path d="M272.598 20.8021C269.855 18.401 260.436 10.9271 248.284 9.56247C239.193 8.54685 228.571 10.9479 218.075 21.4583C209.654 29.8854 201.713 33.8802 194.469 33.3385C187.073 32.7813 182.156 27.5208 179.881 24.4323C179.722 24.2115 179.496 24.0478 179.236 23.9653C178.977 23.8828 178.698 23.8858 178.44 23.9739C178.177 24.0566 177.947 24.2217 177.785 24.4449C177.623 24.6681 177.537 24.9376 177.54 25.2135V64.0989C177.54 64.3454 177.61 64.5867 177.742 64.795C177.874 65.0033 178.062 65.17 178.284 65.276C181.12 66.6198 191.336 71.0833 201.619 71.0833C207.651 71.0833 213.713 69.5468 218.314 64.9375C218.361 64.8906 218.402 64.8489 218.449 64.8073C226.599 56.8698 244.563 58.5 257.673 61.0937C263.095 62.1666 267.685 63.401 270.407 64.1927C270.756 64.2934 271.123 64.3117 271.479 64.246C271.836 64.1803 272.172 64.0325 272.462 63.8142C272.752 63.596 272.987 63.3133 273.149 62.9885C273.31 62.6636 273.394 62.3056 273.394 61.9427V22.5677C273.394 22.2337 273.324 21.9034 273.186 21.599C273.049 21.2945 272.848 21.0229 272.598 20.8021Z" fill="#F9A826"/>
<path d="M293.591 131.562C296.178 131.562 298.275 129.464 298.275 126.875C298.275 124.286 296.178 122.188 293.591 122.188C291.005 122.188 288.908 124.286 288.908 126.875C288.908 129.464 291.005 131.562 293.591 131.562Z" fill="white"/>
<path d="M285.265 183.125C287.852 183.125 289.948 181.026 289.948 178.438C289.948 175.849 287.852 173.75 285.265 173.75C282.678 173.75 280.581 175.849 280.581 178.438C280.581 181.026 282.678 183.125 285.265 183.125Z" fill="white"/>
<path d="M270.173 150.833C274.484 150.833 277.979 147.336 277.979 143.021C277.979 138.706 274.484 135.208 270.173 135.208C265.862 135.208 262.367 138.706 262.367 143.021C262.367 147.336 265.862 150.833 270.173 150.833Z" fill="white"/>
</g>
<defs>
<clipPath id="clip0">
<rect width="332" height="250" fill="white" transform="translate(23 5)"/>
</clipPath>
</defs>
</svg>
