<svg width="358" height="318" viewBox="0 0 358 318" fill="none" xmlns="http://www.w3.org/2000/svg">
<path d="M81.0293 317.719C183.622 298.889 284.49 354.486 331.46 226.623C378.429 98.7608 386.556 -62.1773 153.449 24.5834C-107.216 121.601 32.5347 326.62 81.0293 317.719Z" fill="#3F3D56"/>
<g clip-path="url(#clip0)">
<path d="M278.06 291.844V266.772C278.06 266.772 286.474 284.547 278.06 291.844Z" fill="#F1F1F1"/>
<path d="M278.58 291.84L262.676 274.885C262.676 274.885 279.641 279.707 278.58 291.84Z" fill="#F1F1F1"/>
<path d="M93.7713 291.844V266.772C93.7713 266.772 85.3579 284.547 93.7713 291.844Z" fill="#F1F1F1"/>
<path d="M93.2515 291.84L109.155 274.885C109.155 274.885 92.1904 279.707 93.2515 291.84Z" fill="#F1F1F1"/>
<path d="M238.303 105.896H237.15V69.2244C237.15 66.4371 236.677 63.6772 235.759 61.1022C234.84 58.5271 233.494 56.1873 231.797 54.2165C230.1 52.2456 228.085 50.6822 225.868 49.6156C223.651 48.549 221.274 48 218.874 48H151.974C149.573 48 147.197 48.549 144.98 49.6156C142.762 50.6822 140.748 52.2456 139.05 54.2164C137.353 56.1873 136.007 58.527 135.089 61.1021C134.17 63.6771 133.698 66.4371 133.698 69.2243V270.406C133.698 276.035 135.623 281.433 139.05 285.414C142.478 289.394 147.126 291.63 151.973 291.63H218.874C223.721 291.63 228.37 289.394 231.797 285.414C235.224 281.433 237.15 276.035 237.15 270.406V131.999H238.303V105.896Z" fill="#3F3D56"/>
<path d="M219.611 53.5219H210.879C211.28 54.6653 211.433 55.9058 211.325 57.1343C211.216 58.3627 210.849 59.5413 210.256 60.5662C209.663 61.5911 208.862 62.4309 207.924 63.0116C206.985 63.5923 205.938 63.8961 204.875 63.8962H166.549C165.485 63.8961 164.438 63.5923 163.5 63.0116C162.561 62.4309 161.76 61.5911 161.167 60.5662C160.574 59.5413 160.207 58.3627 160.099 57.1343C159.99 55.9058 160.143 54.6653 160.545 53.5219H152.389C148.769 53.5218 145.297 55.1918 142.738 58.1642C140.178 61.1367 138.74 65.1682 138.74 69.3719V270.258C138.74 272.34 139.093 274.401 139.779 276.324C140.465 278.247 141.47 279.994 142.738 281.466C144.005 282.938 145.51 284.105 147.166 284.902C148.822 285.698 150.596 286.108 152.389 286.108H219.611C221.404 286.108 223.178 285.698 224.834 284.902C226.49 284.105 227.995 282.938 229.262 281.466C230.529 279.994 231.535 278.247 232.221 276.324C232.907 274.401 233.26 272.34 233.26 270.258V270.258V69.3719C233.26 67.2905 232.907 65.2294 232.221 63.3064C231.535 61.3834 230.529 59.636 229.262 58.1642C227.995 56.6924 226.49 55.5249 224.834 54.7284C223.178 53.9318 221.404 53.5219 219.611 53.5219Z" fill="white"/>
<path d="M217.927 282.659H154.073C146.736 282.659 140.766 276.472 140.766 268.867V258.882C140.766 252.82 145.52 247.888 151.363 247.888H220.637C226.48 247.888 231.234 252.82 231.234 258.882V268.867C231.234 276.472 225.265 282.659 217.927 282.659Z" fill="#E5E5E5"/>
<path d="M160.785 114.836H146.541C146.286 114.836 146.042 114.718 145.861 114.508C145.681 114.299 145.579 114.015 145.579 113.719V97.1772C145.579 96.8809 145.681 96.5968 145.861 96.3873C146.042 96.1777 146.286 96.0599 146.541 96.0595H160.785C161.04 96.0599 161.285 96.1777 161.465 96.3873C161.646 96.5968 161.747 96.8809 161.747 97.1772V113.719C161.747 114.015 161.646 114.299 161.465 114.508C161.285 114.718 161.04 114.836 160.785 114.836V114.836Z" fill="#F9A826"/>
<path d="M182.343 114.836H168.099C167.844 114.836 167.599 114.718 167.419 114.508C167.239 114.299 167.137 114.015 167.137 113.719V97.1772C167.137 96.8809 167.239 96.5968 167.419 96.3872C167.599 96.1777 167.844 96.0599 168.099 96.0595H182.343C182.598 96.0599 182.843 96.1777 183.023 96.3872C183.203 96.5968 183.305 96.8809 183.305 97.1772V113.719C183.305 114.015 183.203 114.299 183.023 114.508C182.843 114.718 182.598 114.836 182.343 114.836V114.836Z" fill="#E5E5E5"/>
<path d="M203.901 114.836H189.657C189.402 114.836 189.157 114.718 188.977 114.508C188.796 114.299 188.695 114.015 188.695 113.719V97.1772C188.695 96.8809 188.796 96.5968 188.977 96.3872C189.157 96.1777 189.402 96.0599 189.657 96.0595H203.901C204.156 96.0599 204.4 96.1777 204.581 96.3872C204.761 96.5968 204.863 96.8809 204.863 97.1772V113.719C204.863 114.015 204.761 114.299 204.581 114.508C204.4 114.718 204.156 114.836 203.901 114.836V114.836Z" fill="#E5E5E5"/>
<path d="M225.459 114.836H211.215C210.96 114.836 210.715 114.718 210.535 114.508C210.354 114.299 210.253 114.015 210.253 113.719V97.1772C210.253 96.8809 210.354 96.5968 210.535 96.3873C210.715 96.1777 210.96 96.0599 211.215 96.0595H225.459C225.714 96.0599 225.958 96.1777 226.139 96.3873C226.319 96.5968 226.421 96.8809 226.421 97.1772V113.719C226.421 114.015 226.319 114.299 226.139 114.508C225.958 114.718 225.714 114.836 225.459 114.836V114.836Z" fill="#E5E5E5"/>
<path d="M160.734 145.46H146.49C146.235 145.46 145.991 145.342 145.81 145.133C145.63 144.923 145.528 144.639 145.528 144.343V127.801C145.528 127.505 145.63 127.221 145.81 127.011C145.991 126.802 146.235 126.684 146.49 126.684H160.734C160.989 126.684 161.234 126.802 161.414 127.011C161.595 127.221 161.696 127.505 161.696 127.801V144.343C161.696 144.639 161.595 144.923 161.414 145.133C161.234 145.342 160.989 145.46 160.734 145.46Z" fill="#E5E5E5"/>
<path d="M182.292 145.46H168.048C167.793 145.46 167.549 145.342 167.368 145.133C167.188 144.923 167.086 144.639 167.086 144.343V127.801C167.086 127.505 167.188 127.221 167.368 127.011C167.549 126.802 167.793 126.684 168.048 126.684H182.292C182.547 126.684 182.792 126.802 182.972 127.011C183.153 127.221 183.254 127.505 183.254 127.801V144.343C183.254 144.639 183.153 144.923 182.972 145.133C182.792 145.342 182.547 145.46 182.292 145.46V145.46Z" fill="#E5E5E5"/>
<path d="M203.85 145.46H189.606C189.351 145.46 189.106 145.342 188.926 145.133C188.746 144.923 188.644 144.639 188.644 144.343V127.801C188.644 127.505 188.746 127.221 188.926 127.011C189.106 126.802 189.351 126.684 189.606 126.684H203.85C204.105 126.684 204.35 126.802 204.53 127.011C204.71 127.221 204.812 127.505 204.812 127.801V144.343C204.812 144.639 204.71 144.923 204.53 145.133C204.35 145.342 204.105 145.46 203.85 145.46V145.46Z" fill="#F9A826"/>
<path d="M225.408 145.46H211.164C210.909 145.46 210.664 145.342 210.484 145.133C210.303 144.923 210.202 144.639 210.202 144.343V127.801C210.202 127.505 210.303 127.221 210.484 127.011C210.664 126.802 210.909 126.684 211.164 126.684H225.408C225.663 126.684 225.907 126.802 226.088 127.011C226.268 127.221 226.37 127.505 226.37 127.801V144.343C226.37 144.639 226.268 144.923 226.088 145.133C225.907 145.342 225.663 145.46 225.408 145.46V145.46Z" fill="#F9A826"/>
<path d="M160.683 176.084H146.44C146.184 176.084 145.94 175.966 145.759 175.756C145.579 175.547 145.477 175.263 145.477 174.967V158.425C145.477 158.129 145.579 157.845 145.759 157.635C145.94 157.426 146.184 157.308 146.44 157.307H160.683C160.938 157.308 161.183 157.426 161.363 157.635C161.544 157.845 161.645 158.129 161.646 158.425V174.967C161.645 175.263 161.544 175.547 161.363 175.756C161.183 175.966 160.938 176.084 160.683 176.084V176.084Z" fill="#E5E5E5"/>
<path d="M182.241 176.084H167.997C167.742 176.084 167.498 175.966 167.317 175.756C167.137 175.547 167.035 175.263 167.035 174.967V158.425C167.035 158.129 167.137 157.845 167.317 157.635C167.498 157.426 167.742 157.308 167.997 157.307H182.241C182.496 157.308 182.741 157.426 182.921 157.635C183.102 157.845 183.203 158.129 183.203 158.425V174.967C183.203 175.263 183.102 175.547 182.921 175.756C182.741 175.966 182.496 176.084 182.241 176.084V176.084Z" fill="#E5E5E5"/>
<path d="M203.799 176.084H189.555C189.3 176.084 189.055 175.966 188.875 175.756C188.695 175.547 188.593 175.263 188.593 174.967V158.425C188.593 158.129 188.695 157.845 188.875 157.635C189.055 157.426 189.3 157.308 189.555 157.307H203.799C204.054 157.308 204.299 157.426 204.479 157.635C204.659 157.845 204.761 158.129 204.761 158.425V174.967C204.761 175.263 204.659 175.547 204.479 175.756C204.299 175.966 204.054 176.084 203.799 176.084V176.084Z" fill="#E5E5E5"/>
<path d="M225.357 176.084H211.113C210.858 176.084 210.613 175.966 210.433 175.756C210.253 175.547 210.151 175.263 210.151 174.967V158.425C210.151 158.129 210.253 157.845 210.433 157.635C210.613 157.426 210.858 157.308 211.113 157.307H225.357C225.612 157.308 225.857 157.426 226.037 157.635C226.217 157.845 226.319 158.129 226.319 158.425V174.967C226.319 175.263 226.217 175.547 226.037 175.756C225.857 175.966 225.612 176.084 225.357 176.084V176.084Z" fill="#E5E5E5"/>
<path d="M160.632 206.708H146.389C146.134 206.708 145.889 206.59 145.708 206.38C145.528 206.171 145.427 205.887 145.426 205.59V189.049C145.427 188.753 145.528 188.469 145.708 188.259C145.889 188.05 146.134 187.932 146.389 187.931H160.632C160.887 187.932 161.132 188.05 161.312 188.259C161.493 188.469 161.594 188.753 161.595 189.049V205.59C161.594 205.887 161.493 206.171 161.312 206.38C161.132 206.59 160.887 206.708 160.632 206.708V206.708Z" fill="#E5E5E5"/>
<path d="M182.19 206.708H167.946C167.691 206.708 167.447 206.59 167.266 206.38C167.086 206.171 166.984 205.887 166.984 205.59V189.049C166.984 188.753 167.086 188.469 167.266 188.259C167.447 188.05 167.691 187.932 167.946 187.931H182.19C182.445 187.932 182.69 188.05 182.87 188.259C183.051 188.469 183.152 188.753 183.152 189.049V205.59C183.152 205.887 183.051 206.171 182.87 206.38C182.69 206.59 182.445 206.708 182.19 206.708Z" fill="#E5E5E5"/>
<path d="M203.748 206.708H189.504C189.249 206.708 189.005 206.59 188.824 206.38C188.644 206.171 188.542 205.887 188.542 205.59V189.049C188.542 188.753 188.644 188.469 188.824 188.259C189.005 188.05 189.249 187.932 189.504 187.931H203.748C204.003 187.932 204.248 188.05 204.428 188.259C204.609 188.469 204.71 188.753 204.71 189.049V205.59C204.71 205.887 204.609 206.171 204.428 206.38C204.248 206.59 204.003 206.708 203.748 206.708Z" fill="#E5E5E5"/>
<path d="M225.306 206.708H211.062C210.807 206.708 210.562 206.59 210.382 206.38C210.202 206.171 210.1 205.887 210.1 205.59V189.049C210.1 188.753 210.202 188.469 210.382 188.259C210.562 188.05 210.807 187.932 211.062 187.931H225.306C225.561 187.932 225.805 188.05 225.986 188.259C226.166 188.469 226.268 188.753 226.268 189.049V205.59C226.268 205.887 226.166 206.171 225.986 206.38C225.805 206.59 225.561 206.708 225.306 206.708V206.708Z" fill="#E5E5E5"/>
<path d="M160.785 275.109H146.541C146.286 275.109 146.042 274.991 145.861 274.782C145.681 274.572 145.579 274.288 145.579 273.992V257.45C145.579 257.154 145.681 256.87 145.861 256.66C146.042 256.451 146.286 256.333 146.541 256.333H160.785C161.04 256.333 161.285 256.451 161.465 256.66C161.646 256.87 161.747 257.154 161.747 257.45V273.992C161.747 274.288 161.646 274.572 161.465 274.782C161.285 274.991 161.04 275.109 160.785 275.109Z" fill="white"/>
<path d="M182.343 275.109H168.099C167.844 275.109 167.599 274.991 167.419 274.782C167.239 274.572 167.137 274.288 167.137 273.992V257.45C167.137 257.154 167.239 256.87 167.419 256.66C167.599 256.451 167.844 256.333 168.099 256.333H182.343C182.598 256.333 182.843 256.451 183.023 256.66C183.203 256.87 183.305 257.154 183.305 257.45V273.992C183.305 274.288 183.203 274.572 183.023 274.782C182.843 274.991 182.598 275.109 182.343 275.109V275.109Z" fill="white"/>
<path d="M203.901 275.109H189.657C189.402 275.109 189.157 274.991 188.977 274.782C188.796 274.572 188.695 274.288 188.695 273.992V257.45C188.695 257.154 188.796 256.87 188.977 256.66C189.157 256.451 189.402 256.333 189.657 256.333H203.901C204.156 256.333 204.4 256.451 204.581 256.66C204.761 256.87 204.863 257.154 204.863 257.45V273.992C204.863 274.288 204.761 274.572 204.581 274.782C204.4 274.991 204.156 275.109 203.901 275.109V275.109Z" fill="white"/>
<path d="M225.459 275.109H211.215C210.96 275.109 210.715 274.991 210.535 274.782C210.354 274.572 210.253 274.288 210.253 273.992V257.45C210.253 257.154 210.354 256.87 210.535 256.66C210.715 256.451 210.96 256.333 211.215 256.333H225.459C225.714 256.333 225.958 256.451 226.139 256.66C226.319 256.87 226.421 257.154 226.421 257.45V273.992C226.421 274.288 226.319 274.572 226.139 274.782C225.958 274.991 225.714 275.109 225.459 275.109Z" fill="white"/>
<path d="M179.02 240.238C180.083 240.238 180.945 239.237 180.945 238.003C180.945 236.768 180.083 235.767 179.02 235.767C177.957 235.767 177.095 236.768 177.095 238.003C177.095 239.237 177.957 240.238 179.02 240.238Z" fill="#E5E5E5"/>
<path d="M185.949 240.238C187.012 240.238 187.874 239.237 187.874 238.003C187.874 236.768 187.012 235.767 185.949 235.767C184.886 235.767 184.024 236.768 184.024 238.003C184.024 239.237 184.886 240.238 185.949 240.238Z" fill="#E5E5E5"/>
<path d="M192.878 240.238C193.941 240.238 194.803 239.237 194.803 238.003C194.803 236.768 193.941 235.767 192.878 235.767C191.815 235.767 190.953 236.768 190.953 238.003C190.953 239.237 191.815 240.238 192.878 240.238Z" fill="#E5E5E5"/>
<path d="M309.702 291.993H62.2984C62.2193 291.993 62.1434 291.956 62.0874 291.891C62.0314 291.826 62 291.738 62 291.646C62 291.554 62.0314 291.466 62.0874 291.401C62.1434 291.336 62.2193 291.299 62.2984 291.299H309.702C309.781 291.299 309.857 291.336 309.913 291.401C309.969 291.466 310 291.554 310 291.646C310 291.738 309.969 291.826 309.913 291.891C309.857 291.956 309.781 291.993 309.702 291.993Z" fill="#CBCBCB"/>
<path d="M159.399 223.752C159.801 223.284 160.111 222.72 160.305 222.098C160.5 221.477 160.575 220.814 160.525 220.155C160.475 219.497 160.301 218.859 160.016 218.287C159.73 217.714 159.34 217.222 158.873 216.844L162.632 201.376L155.779 203.907L153.26 218.207C152.765 219.16 152.588 220.291 152.763 221.386C152.938 222.48 153.452 223.462 154.209 224.146C154.966 224.829 155.912 225.167 156.868 225.094C157.825 225.021 158.725 224.544 159.399 223.752V223.752Z" fill="#FFB7B7"/>
<path d="M161.347 214.271C161.225 214.298 161.1 214.31 160.976 214.307L154.401 214.154C154.154 214.149 153.91 214.082 153.687 213.958C153.464 213.835 153.265 213.657 153.106 213.438C152.946 213.218 152.828 212.962 152.76 212.685C152.692 212.409 152.676 212.119 152.712 211.835L159.382 159.504C159.581 157.991 160.239 156.61 161.239 155.611C162.238 154.612 163.512 154.061 164.83 154.057C165.663 154.06 166.484 154.282 167.232 154.707C167.98 155.132 168.634 155.748 169.147 156.51C169.659 157.272 170.016 158.159 170.19 159.105C170.364 160.05 170.351 161.029 170.151 161.968L165.424 184.203L162.743 212.505C162.704 212.935 162.548 213.338 162.296 213.656C162.045 213.974 161.712 214.189 161.347 214.271V214.271Z" fill="#3F3D56"/>
<path d="M164.096 296.881H167.755L169.496 280.492L164.096 280.492L164.096 296.881Z" fill="#FFB7B7"/>
<path d="M163.163 295.494L170.369 295.494H170.369C171.587 295.494 172.755 296.056 173.616 297.056C174.477 298.056 174.961 299.412 174.961 300.826V301L163.163 301L163.163 295.494Z" fill="#2F2E41"/>
<path d="M179.698 295.501L183.333 295.974L186.636 279.913L181.27 279.214L179.698 295.501Z" fill="#FFB7B7"/>
<path d="M178.903 294.002L186.064 294.934L186.064 294.934C187.274 295.092 188.381 295.801 189.141 296.907C189.9 298.012 190.251 299.422 190.115 300.828L190.099 301L178.375 299.473L178.903 294.002Z" fill="#2F2E41"/>
<path d="M160.662 205.679C160.662 205.679 155.646 218.574 160.076 226.951L162.715 292.166H168.774L174.652 239.486L185.098 255.082L178.734 291.482L186.144 291.965L196.438 255.082C196.438 255.082 188.53 214.411 185.919 213.432L184.202 204.135L160.662 205.679Z" fill="#2F2E41"/>
<path d="M158.43 217C158.43 217 153.911 223.023 165.848 225.103C177.786 227.182 190.32 224.063 190.619 219.904C190.917 215.745 158.43 217 158.43 217Z" fill="#CBCBCB"/>
<path d="M218.271 142.288C218.253 142.876 218.124 143.452 217.893 143.976C217.662 144.5 217.335 144.958 216.935 145.319C216.535 145.68 216.071 145.935 215.577 146.065C215.083 146.196 214.571 146.199 214.076 146.075L209.563 153.632L204.94 151.567L211.442 140.999C211.677 140.047 212.204 139.228 212.925 138.698C213.645 138.167 214.508 137.962 215.349 138.121C216.191 138.28 216.954 138.792 217.492 139.56C218.031 140.328 218.308 141.299 218.271 142.288V142.288Z" fill="#FFB7B7"/>
<path d="M180.11 152.011L173.73 148.659L165.556 149.338C165.556 149.338 155.702 162.718 159.581 175.542L157.194 220.25C172.414 225.103 179.333 216.002 190.32 219.904L186.926 170.215L180.11 152.011Z" fill="#3F3D56"/>
<path d="M175.846 155.267L180.11 152.011C180.11 152.011 186.033 150.971 188.4 153.639C188.4 153.639 196.436 154.42 198.377 156.749L200.514 157.309L207.613 146.634L211.957 149.375L205.69 169.13L186.926 170.215L175.846 155.267Z" fill="#3F3D56"/>
<path d="M177.317 144.899C182.198 141.801 183.991 134.695 181.323 129.027C178.656 123.36 172.537 121.277 167.656 124.375C162.776 127.473 160.983 134.579 163.65 140.247C166.318 145.915 172.437 147.998 177.317 144.899Z" fill="#FFB7B7"/>
<path d="M163.776 125.494C165.574 121.739 167.82 119.308 171.519 119.396C175.217 119.483 178.417 119.314 180.081 123.15C180.52 122.194 180.741 121.122 180.72 120.038C181.223 120.417 181.619 120.959 181.859 121.596C182.1 122.233 182.175 122.938 182.075 123.624C182.398 123.404 182.669 123.093 182.863 122.719C183.056 122.346 183.166 121.922 183.181 121.487C184.416 121.964 184.737 123.984 184.112 125.309C183.487 126.635 182.263 127.401 181.087 128.049C179.912 128.697 180.455 132.123 179.687 133.343C179.152 134.194 178.907 135.237 178.546 136.205C178.531 136.243 178.505 136.274 178.473 136.293C177.645 136.829 177.123 137.787 177.269 138.874C177.286 138.955 177.282 139.041 177.257 139.12C176.21 141.412 175.079 143.81 173.18 145.177C171.656 146.246 169.831 146.573 168.101 146.089C166.16 145.55 164.482 144.056 163.272 142.213C162.063 140.37 161.284 138.192 160.699 135.976C160.181 134.01 159.803 131.909 160.215 129.909C160.626 127.909 162.019 126.058 163.785 125.903" fill="#2F2E41"/>
</g>
<defs>
<clipPath id="clip0">
<rect width="248" height="253" fill="white" transform="translate(62 48)"/>
</clipPath>
</defs>
</svg>
