<svg width="358" height="318" viewBox="0 0 358 318" fill="none" xmlns="http://www.w3.org/2000/svg">
<path d="M81.0293 317.719C183.622 298.889 284.49 354.486 331.46 226.623C378.429 98.7608 386.556 -62.1773 153.449 24.5834C-107.216 121.601 32.5347 326.62 81.0293 317.719Z" fill="#3F3D56"/>
<g clip-path="url(#clip0)">
<path d="M353 265.692H12V266.348H353V265.692Z" fill="#3F3D56"/>
<path d="M205.352 129.924H224.856V101.463H205.352V129.924Z" fill="#2F2E41"/>
<path d="M221.087 114.592C221.087 114.592 220.353 128.643 226.841 129.22C231.381 129.623 217.988 142.074 217.988 142.074L206.479 126.117C206.479 126.117 215.106 127.002 209.577 117.251L221.087 114.592Z" fill="#FFB8B8"/>
<path opacity="0.1" d="M206.478 126.118L210.115 131.162L217.988 142.074C217.988 142.074 224.564 135.96 226.938 132.164C227.83 130.735 228.132 129.635 227.266 129.31C227.262 129.307 227.257 129.306 227.253 129.307C227.128 129.26 226.998 129.231 226.866 129.221C226.858 129.22 226.851 129.219 226.843 129.218C226.465 129.186 226.093 129.102 225.738 128.969C220.438 126.985 221.088 114.592 221.088 114.592L209.577 117.252C213.266 123.757 210.652 125.53 208.504 125.987C208.033 126.085 207.553 126.136 207.071 126.138C206.707 126.141 206.478 126.118 206.478 126.118Z" fill="black"/>
<path d="M203.095 103.051C205.202 109.299 208.433 114.991 215.018 114.991C221.604 114.991 226.571 109.635 226.942 103.051C227.416 94.6386 221.756 91.0766 215.019 91.1115C207.06 91.1526 200.594 95.637 203.095 103.051Z" fill="#2F2E41"/>
<path d="M231.268 204.575L228.169 226.295C228.169 226.295 230.826 239.593 229.498 248.901L228.169 258.653H221.972L220.201 248.458C220.201 248.458 218.431 237.82 218.431 232.944C218.431 232.944 213.561 210.781 216.66 206.348L231.268 204.575Z" fill="#FFB8B8"/>
<path d="M193.641 203.245L196.74 226.295C196.74 226.295 194.084 239.593 195.412 248.901L196.74 258.653H202.937L204.708 248.458C204.708 248.458 206.478 237.82 206.478 232.944C206.478 232.944 211.348 209.451 208.249 205.018L193.641 203.245Z" fill="#FFB8B8"/>
<path d="M199.838 257.323C199.838 257.323 196.297 255.994 195.854 257.767C195.412 259.54 194.526 268.848 194.526 268.848C194.526 268.848 191.87 272.838 190.1 273.281C188.329 273.724 184.345 279.487 189.214 279.93C194.084 280.373 198.953 278.6 198.953 277.714C198.953 276.827 200.724 276.384 201.609 276.384C202.494 276.384 205.593 275.054 205.15 273.724C204.708 272.394 203.38 256.88 203.38 256.88L199.838 257.323Z" fill="#2F2E41"/>
<path d="M225.071 257.323C225.071 257.323 228.612 255.994 229.055 257.767C229.498 259.54 230.383 268.848 230.383 268.848C230.383 268.848 233.039 272.838 234.81 273.281C236.58 273.724 240.564 279.487 235.695 279.93C230.826 280.373 225.956 278.6 225.956 277.714C225.956 276.827 224.185 276.384 223.3 276.384C222.415 276.384 219.316 275.054 219.759 273.724C220.201 272.394 221.529 256.88 221.529 256.88L225.071 257.323Z" fill="#2F2E41"/>
<path d="M214.447 119.794C219.516 119.794 223.625 115.679 223.625 110.602C223.625 105.526 219.516 101.411 214.447 101.411C209.377 101.411 205.268 105.526 205.268 110.602C205.268 115.679 209.377 119.794 214.447 119.794Z" fill="#FFB8B8"/>
<path d="M179.918 161.133C179.918 161.133 198.509 169.113 200.28 160.69C201.369 155.426 202.108 150.096 202.493 144.734C202.495 144.732 202.497 144.731 202.5 144.731C202.759 144.573 211.918 138.945 210.115 131.162C209.695 129.476 208.906 127.905 207.806 126.561C207.806 126.561 207.534 126.384 207.071 126.138C206.529 125.848 205.97 125.592 205.396 125.373C202.27 124.181 197.073 123.508 195.856 131.435C194.085 142.961 194.085 155.373 194.085 155.373C194.085 155.373 188.772 158.477 181.689 155.373C174.605 152.27 167.522 154.043 167.079 158.033C166.637 162.02 179.918 161.133 179.918 161.133Z" fill="#FFB8B8"/>
<path d="M226.843 129.218L226.938 132.164L227.994 165.369L228.171 170.886L243.663 188.175C243.663 188.175 246.762 197.481 253.403 198.811C260.043 200.141 248.975 185.959 248.975 185.959L233.923 163.793L233.9 163.048C233.731 156.837 234.247 150.627 235.441 144.53C235.883 142.261 235.968 139.937 235.694 137.641C235.077 132.696 231.014 130.551 228.614 129.707C228.173 129.549 227.723 129.416 227.266 129.31C227.262 129.307 227.257 129.306 227.253 129.307C227.053 129.258 226.918 129.231 226.866 129.221C226.858 129.22 226.851 129.219 226.843 129.218V129.218Z" fill="#FFB8B8"/>
<path d="M202.051 161.133V162.906C208.505 170.804 222.79 167.074 227.994 165.369C229.217 164.969 229.939 164.68 229.939 164.68C229.674 164.124 229.523 163.521 229.496 162.906V158.92C229.496 157.59 229.056 158.477 228.614 158.033C228.171 157.59 229.939 154.93 229.939 154.93C234.366 152.27 231.709 144.734 231.709 144.734L228.614 138.084V129.707C228.173 129.549 227.722 129.416 227.266 129.31C227.262 129.307 227.257 129.306 227.253 129.307C227.128 129.26 226.998 129.231 226.866 129.221C226.858 129.22 226.851 129.219 226.843 129.218C226.465 129.186 226.093 129.102 225.738 128.968C224.908 130.683 223.104 132.939 219.317 133.208C214.781 133.533 210.482 128.637 208.505 125.987C208.033 126.085 207.553 126.136 207.071 126.138C206.529 125.848 205.97 125.592 205.396 125.373L207.363 133.651C209.105 138.009 202.72 144.504 202.5 144.731C202.497 144.731 202.495 144.732 202.493 144.734V149.61L202.936 154.93L203.379 156.26L202.493 157.59L202.936 158.92L202.493 159.807C202.051 160.69 202.051 160.25 202.051 161.133Z" fill="#D0CDE1"/>
<path d="M229.055 164.238L230.383 163.794C230.383 163.794 246.319 203.688 235.695 205.461C225.071 207.234 217.103 210.337 215.332 207.234C213.561 204.132 214.447 193.05 214.447 193.05L212.676 192.607C212.676 192.607 215.775 209.008 209.577 207.678C203.38 206.348 186.116 204.132 186.116 202.359C186.116 200.585 202.052 162.292 202.052 162.292C202.052 162.292 208.692 166.454 229.055 164.238Z" fill="#2F2E41"/>
<path d="M215.018 93.6251C217.618 93.6251 219.725 91.5149 219.725 88.912C219.725 86.309 217.618 84.1989 215.018 84.1989C212.419 84.1989 210.312 86.309 210.312 88.912C210.312 91.5149 212.419 93.6251 215.018 93.6251Z" fill="#2F2E41"/>
<path d="M220.667 86.3984C220.666 85.23 220.233 84.1034 219.45 83.2369C218.668 82.3705 217.591 81.826 216.43 81.7091C216.585 81.6937 216.742 81.6853 216.901 81.6853C217.519 81.6853 218.131 81.8072 218.702 82.0441C219.273 82.2809 219.792 82.6281 220.229 83.0657C220.666 83.5034 221.013 84.0229 221.25 84.5948C221.486 85.1666 221.608 85.7794 221.608 86.3984C221.608 87.0173 221.486 87.6302 221.25 88.202C221.013 88.7738 220.666 89.2934 220.229 89.731C219.792 90.1687 219.273 90.5158 218.702 90.7527C218.131 90.9895 217.519 91.1114 216.901 91.1114C216.742 91.1114 216.585 91.1031 216.43 91.0877C217.591 90.9708 218.668 90.4263 219.45 89.5598C220.233 88.6934 220.666 87.5667 220.667 86.3984V86.3984Z" fill="#2F2E41"/>
<path d="M218.809 98.7674C218.809 98.7674 218.907 98.2196 222.751 99.6629C226.594 101.106 228.899 111.758 226.977 118.012C226.202 120.533 226.832 122.35 227.86 123.621C231.719 128.393 230.2 135.56 224.579 138.014C224.421 138.083 224.259 138.151 224.094 138.219L221.691 139.662C221.691 139.662 224.754 135.627 223.221 130.466C221.89 126.068 221.726 121.399 222.744 116.918C222.92 116.162 223.12 115.383 223.347 114.588C225.269 107.852 224.334 108.63 217.607 101.895C217.607 101.895 213.764 104.781 210.4 106.225C207.037 107.668 204.154 109.111 206.557 113.923C208.959 118.734 214.725 123.064 210.881 129.318C207.037 135.573 206.557 133.167 207.037 135.573L207.518 137.978L204.635 135.092L206.557 138.941C206.557 138.941 200.31 138.941 198.389 134.129L197.428 135.092C197.428 135.092 193.584 128.356 200.791 122.102C200.791 122.102 203.193 120.658 199.83 115.847C196.467 111.036 199.05 100.692 203.374 98.7674C207.698 96.843 218.809 98.7674 218.809 98.7674Z" fill="#2F2E41"/>
<path d="M171.642 119.924V141.492C171.641 141.691 171.562 141.882 171.421 142.023C171.28 142.164 171.09 142.243 170.891 142.244H170.356V254.598C170.356 257.708 169.122 260.689 166.927 262.888C164.731 265.086 161.754 266.321 158.649 266.322H88.5385C87.0013 266.321 85.4791 266.018 84.059 265.429C82.6388 264.84 81.3485 263.976 80.2616 262.887C79.1748 261.799 78.3127 260.506 77.7247 259.084C77.1366 257.662 76.8341 256.138 76.8344 254.598V146.184H76.4474C76.307 146.185 76.1722 146.129 76.0727 146.03C75.9731 145.931 75.9168 145.796 75.9161 145.656V133.381C75.9161 133.311 75.9299 133.242 75.9565 133.177C75.9832 133.113 76.0224 133.054 76.0717 133.005C76.121 132.955 76.1796 132.916 76.2441 132.889C76.3085 132.863 76.3776 132.849 76.4474 132.849H76.8344V128.225H76.4441C76.2967 128.225 76.1556 128.166 76.0517 128.061C75.9478 127.956 75.8896 127.815 75.8899 127.667V115.56C75.8903 115.413 75.9488 115.272 76.0526 115.168C76.1565 115.064 76.2972 115.005 76.4441 115.005H76.8344V108.693H76.4375C76.3729 108.693 76.3089 108.681 76.2492 108.656C76.1895 108.631 76.1352 108.595 76.0895 108.549C76.0438 108.504 76.0076 108.449 75.9829 108.389C75.9582 108.33 75.9456 108.265 75.9456 108.201V101.594C75.9453 101.463 75.997 101.337 76.0892 101.244C76.1814 101.151 76.3067 101.099 76.4375 101.098H76.8344V87.7198C76.8345 84.6116 78.0676 81.6306 80.2626 79.4328C82.4575 77.2349 85.4344 76.0001 88.5385 76H158.649C161.753 76 164.73 77.2346 166.926 79.4324C169.121 81.6302 170.355 84.6112 170.356 87.7198V119.172H170.891C171.09 119.172 171.28 119.252 171.421 119.393C171.562 119.534 171.641 119.725 171.642 119.924Z" fill="#3F3D56"/>
<path d="M126.971 82.0115H115.579C115.119 82.0115 114.745 82.3852 114.745 82.8462V83.8322C114.745 84.2932 115.119 84.6669 115.579 84.6669H126.971C127.432 84.6669 127.805 84.2932 127.805 83.8322V82.8462C127.805 82.3852 127.432 82.0115 126.971 82.0115Z" fill="#E6E8EC"/>
<path d="M131.284 84.8454C132.114 84.8454 132.788 84.1711 132.788 83.3393C132.788 82.5075 132.114 81.8331 131.284 81.8331C130.453 81.8331 129.78 82.5075 129.78 83.3393C129.78 84.1711 130.453 84.8454 131.284 84.8454Z" fill="#E6E8EC"/>
<path d="M164.75 90.0381V255.57C164.749 257.542 163.966 259.433 162.573 260.828C161.18 262.222 159.291 263.005 157.322 263.005H90.2094C89.2338 263.007 88.2674 262.815 87.3656 262.442C86.4639 262.07 85.6445 261.522 84.9545 260.831C84.2645 260.141 83.7173 259.32 83.3445 258.418C82.9716 257.515 82.7803 256.547 82.7816 255.57V90.0381C82.7815 89.0614 82.9736 88.0942 83.3469 87.1918C83.7202 86.2893 84.2673 85.4694 84.957 84.7787C85.6468 84.0881 86.4656 83.5402 87.3668 83.1664C88.268 82.7927 89.2339 82.6003 90.2094 82.6003H100.254V83.8909C100.254 85.5151 100.899 87.0728 102.046 88.2214C103.193 89.3699 104.748 90.0151 106.37 90.0151H140.502C142.124 90.0151 143.68 89.3699 144.827 88.2214C145.974 87.0728 146.618 85.5151 146.618 83.8909V82.6003H157.322C158.298 82.6 159.264 82.7922 160.165 83.1659C161.066 83.5395 161.885 84.0874 162.575 84.7781C163.265 85.4688 163.812 86.2889 164.185 87.1914C164.558 88.094 164.75 89.0613 164.75 90.0381V90.0381Z" fill="#F9A826"/>
<path opacity="0.2" d="M162.14 136.865H86.0577V173.972H162.14V136.865Z" fill="black"/>
<path d="M336.492 168.327H260.411V205.434H336.492V168.327Z" fill="#F2F2F2"/>
<path d="M162.14 193.109H86.0577V230.216H162.14V193.109Z" fill="#3F3D56"/>
<path d="M154.269 109.373C157.891 109.373 160.828 106.433 160.828 102.805C160.828 99.1783 157.891 96.2379 154.269 96.2379C150.647 96.2379 147.71 99.1783 147.71 102.805C147.71 106.433 150.647 109.373 154.269 109.373Z" fill="white"/>
<path d="M157.221 102.594H154.48V99.8501H154.058V102.594H151.318V103.017H154.058V105.761H154.48V103.017H157.221V102.594Z" fill="#3F3D56"/>
<path d="M327.966 163.401H251.884V200.508H327.966V163.401Z" fill="#3F3D56"/>
<path d="M285.848 188.315C287.839 195.687 294.661 200.253 294.661 200.253C294.661 200.253 298.254 192.866 296.262 185.494C294.27 178.122 287.449 173.556 287.449 173.556C287.449 173.556 283.856 180.943 285.848 188.315Z" fill="white"/>
<path d="M288.774 186.731C294.239 192.058 294.907 200.247 294.907 200.247C294.907 200.247 286.714 199.799 281.249 194.472C275.783 189.145 275.116 180.956 275.116 180.956C275.116 180.956 283.309 181.404 288.774 186.731Z" fill="#F9A826"/>
<path d="M116.69 218.589C118.682 225.961 125.503 230.527 125.503 230.527C125.503 230.527 129.096 223.14 127.104 215.768C125.113 208.396 118.291 203.83 118.291 203.83C118.291 203.83 114.698 211.217 116.69 218.589Z" fill="white"/>
<path d="M119.617 217.004C125.082 222.332 125.749 230.521 125.749 230.521C125.749 230.521 117.556 230.073 112.091 224.745C106.626 219.418 105.958 211.229 105.958 211.229C105.958 211.229 114.152 211.677 119.617 217.004Z" fill="#F9A826"/>
<path d="M134.808 218.589C132.817 225.961 125.995 230.527 125.995 230.527C125.995 230.527 122.402 223.14 124.394 215.768C126.385 208.396 133.207 203.83 133.207 203.83C133.207 203.83 136.8 211.217 134.808 218.589Z" fill="white"/>
<path d="M131.882 217.004C126.417 222.332 125.749 230.521 125.749 230.521C125.749 230.521 133.942 230.073 139.407 224.745C144.872 219.418 145.54 211.229 145.54 211.229C145.54 211.229 137.347 211.677 131.882 217.004Z" fill="#F9A826"/>
<path d="M178.536 130.954H102.455V168.061H178.536V130.954Z" fill="#3F3D56"/>
<path d="M140.872 143.677H140.216V168.112H140.872V143.677Z" fill="white"/>
<path d="M140.544 147.461C142.45 147.461 143.995 145.914 143.995 144.005C143.995 142.097 142.45 140.55 140.544 140.55C138.638 140.55 137.093 142.097 137.093 144.005C137.093 145.914 138.638 147.461 140.544 147.461Z" fill="#F9A826"/>
<path d="M140.544 158.737C140.544 158.737 140.051 148.12 129.945 149.354Z" fill="white"/>
</g>
<defs>
<clipPath id="clip0">
<rect width="341" height="204" fill="white" transform="translate(12 76)"/>
</clipPath>
</defs>
</svg>
