<svg width="383" height="376" viewBox="0 0 383 376" fill="none" xmlns="http://www.w3.org/2000/svg">
<path d="M38.4999 162C-89.7097 230.117 290 472.5 338.5 333C387 193.5 447.203 -74.6572 206.5 20C-62.6594 125.848 198.762 76.8538 38.4999 162Z" fill="#3F3D56"/>
<g clip-path="url(#clip0)">
<path d="M141.653 92.9918H140.362V57.5264C140.362 54.8309 139.832 52.1617 138.803 49.6713C137.774 47.1809 136.266 44.9181 134.364 43.0121C132.463 41.106 130.206 39.594 127.722 38.5625C125.237 37.5309 122.575 37 119.886 37H44.9333C39.5028 37 34.2947 39.1626 30.4547 43.012C26.6148 46.8614 24.4575 52.0824 24.4575 57.5263V252.092C24.4575 254.788 24.9871 257.457 26.0161 259.947C27.0451 262.438 28.5534 264.701 30.4547 266.607C32.356 268.513 34.6133 270.025 37.0975 271.056C39.5817 272.088 42.2443 272.619 44.9332 272.619H119.886C125.316 272.619 130.524 270.456 134.364 266.607C138.204 262.757 140.362 257.536 140.362 252.092V118.237H141.653V92.9918Z" fill="#3F3D56"/>
<path d="M120.712 42.3403H110.928C111.378 43.4461 111.55 44.6459 111.428 45.8339C111.307 47.0219 110.896 48.1618 110.231 49.153C109.567 50.1442 108.669 50.9564 107.618 51.518C106.566 52.0796 105.393 52.3734 104.202 52.3735H61.2627C60.0714 52.3734 58.8984 52.0796 57.847 51.518C56.7956 50.9564 55.8982 50.1442 55.2337 49.153C54.5692 48.1618 54.158 47.0219 54.0364 45.8339C53.9149 44.6459 54.0866 43.4461 54.5366 42.3403H45.3985C43.3904 42.3403 41.402 42.7368 39.5468 43.5071C37.6916 44.2775 36.006 45.4066 34.5861 46.83C33.1662 48.2534 32.0398 49.9433 31.2714 51.803C30.5029 53.6628 30.1074 55.6561 30.1074 57.6691V251.95C30.1074 253.963 30.5029 255.956 31.2714 257.816C32.0398 259.675 33.1662 261.365 34.5861 262.789C36.006 264.212 37.6916 265.341 39.5468 266.112C41.402 266.882 43.3904 267.278 45.3984 267.278H120.712C122.72 267.278 124.709 266.882 126.564 266.112C128.419 265.341 130.105 264.212 131.525 262.789C132.944 261.365 134.071 259.675 134.839 257.816C135.608 255.956 136.003 253.963 136.003 251.95V57.6691C136.003 55.6561 135.608 53.6628 134.839 51.803C134.071 49.9432 132.944 48.2534 131.525 46.83C130.105 45.4066 128.419 44.2775 126.564 43.5071C124.709 42.7368 122.72 42.3403 120.712 42.3403Z" fill="white"/>
<path d="M165.677 272.652H0.433709C0.318682 272.652 0.208366 272.606 0.12703 272.525C0.0456939 272.443 0 272.333 0 272.217C0 272.102 0.0456939 271.991 0.12703 271.91C0.208366 271.828 0.318682 271.783 0.433709 271.783H165.677C165.792 271.783 165.902 271.828 165.984 271.91C166.065 271.991 166.111 272.102 166.111 272.217C166.111 272.333 166.065 272.443 165.984 272.525C165.902 272.606 165.792 272.652 165.677 272.652Z" fill="#CBCBCB"/>
<path d="M83.0553 187.296C103.283 187.296 119.68 170.857 119.68 150.58C119.68 130.302 103.283 113.864 83.0553 113.864C62.8278 113.864 46.4302 130.302 46.4302 150.58C46.4302 170.857 62.8278 187.296 83.0553 187.296Z" fill="#F9A826"/>
<path d="M79.4259 164.586C78.602 164.587 77.7999 164.32 77.1407 163.824L77.0998 163.794L68.4924 157.193C68.0938 156.887 67.7593 156.505 67.5079 156.069C67.2566 155.633 67.0933 155.151 67.0276 154.652C66.9618 154.153 66.9947 153.645 67.1245 153.159C67.2543 152.673 67.4784 152.217 67.7841 151.817C68.0897 151.417 68.4708 151.082 68.9057 150.83C69.3406 150.578 69.8208 150.414 70.3188 150.348C70.8168 150.282 71.3228 150.315 71.8081 150.446C72.2934 150.576 72.7483 150.8 73.1469 151.107L78.7221 155.393L91.8965 138.163C92.202 137.763 92.583 137.428 93.0177 137.176C93.4525 136.924 93.9324 136.761 94.4302 136.695C94.928 136.629 95.4338 136.662 95.9189 136.792C96.404 136.922 96.8587 137.147 97.2572 137.453L97.2583 137.454L97.1765 137.567L97.2605 137.454C98.0644 138.073 98.5904 138.987 98.723 139.994C98.8556 141.002 98.584 142.021 97.9677 142.829L82.4717 163.086C82.1132 163.553 81.6523 163.93 81.1247 164.19C80.5971 164.449 80.0169 164.583 79.4293 164.581L79.4259 164.586Z" fill="white"/>
<path d="M301.1 276.261C301.546 275.539 302.07 274.869 302.664 274.263C302.909 274.008 303.167 273.769 303.434 273.535C305.053 272.09 307.027 271.104 309.153 270.677C311.279 270.251 313.479 270.399 315.529 271.108C317.578 271.817 319.402 273.06 320.814 274.71C322.225 276.359 323.172 278.356 323.559 280.495C325.347 273.863 320.691 267.331 316.01 262.314C311.326 257.298 305.972 251.796 305.999 244.924C306.012 241.099 307.878 237.688 310.696 235.158C310.783 235.082 310.87 235.005 310.958 234.931C314.364 232.005 318.745 230.474 323.227 230.645C331.554 231.092 338.824 236.702 343.874 243.357C352.001 254.064 355.562 269.095 349.872 281.284C344.868 292.004 334.194 298.37 323.301 303.487C321.78 304.202 320.262 304.895 318.747 305.567C318.737 305.57 318.726 305.577 318.716 305.58C318.643 305.612 318.57 305.644 318.502 305.677C318.189 305.815 317.876 305.954 317.566 306.09L317.71 306.184L318.158 306.475C318.003 306.381 317.849 306.289 317.694 306.195C317.647 306.166 317.599 306.14 317.553 306.111C312.202 302.893 306.778 299.488 303.082 294.464C299.248 289.248 297.707 281.776 301.1 276.261Z" fill="#F1F1F1"/>
<path d="M336.796 264.146C337.981 266.848 338.766 269.708 339.127 272.637C339.412 275.249 339.305 277.889 338.81 280.469C337.748 285.771 335.431 290.74 332.054 294.957C329.507 298.159 326.566 301.025 323.301 303.487C321.78 304.202 320.262 304.895 318.747 305.567C318.737 305.57 318.726 305.577 318.716 305.58C318.643 305.612 318.57 305.644 318.502 305.677C318.189 305.815 317.876 305.954 317.566 306.09L317.71 306.184L318.158 306.475C318.003 306.381 317.849 306.289 317.694 306.195C317.647 306.166 317.599 306.14 317.553 306.111C318.73 301.982 318.903 297.631 318.057 293.421C317.212 289.212 315.372 285.267 312.692 281.917C309.998 278.609 306.562 275.987 302.664 274.263C302.909 274.008 303.167 273.769 303.434 273.535C304.935 274.226 306.372 275.049 307.729 275.994C312.581 279.356 316.224 284.194 318.12 289.794C319.812 294.874 320.023 300.332 318.729 305.528C318.998 305.352 319.267 305.171 319.529 304.991C324.514 301.622 329.107 297.575 332.567 292.613C335.551 288.419 337.461 283.554 338.128 278.446C338.791 272.866 337.398 267.379 334.913 262.4C332.169 257.073 328.711 252.148 324.636 247.761C320.543 243.252 315.914 239.263 310.854 235.882C310.74 235.805 310.66 235.686 310.631 235.552C310.601 235.417 310.624 235.276 310.696 235.158C310.75 235.051 310.844 234.969 310.958 234.931C311.016 234.916 311.077 234.915 311.135 234.927C311.194 234.939 311.249 234.964 311.296 235C311.921 235.418 312.54 235.839 313.152 236.273C318.248 239.89 322.876 244.128 326.929 248.889C330.846 253.478 334.41 258.577 336.796 264.146Z" fill="white"/>
<path d="M227.715 54.0481C232.011 54.0481 235.494 50.557 235.494 46.2506C235.494 41.9442 232.011 38.4532 227.715 38.4532C223.42 38.4532 219.937 41.9442 219.937 46.2506C219.937 50.557 223.42 54.0481 227.715 54.0481Z" fill="#F1F1F1"/>
<path d="M324.433 158.396C327.052 158.396 329.175 156.267 329.175 153.642C329.175 151.016 327.052 148.888 324.433 148.888C321.813 148.888 319.69 151.016 319.69 153.642C319.69 156.267 321.813 158.396 324.433 158.396Z" fill="#F1F1F1"/>
<path d="M185.646 171.439C188.265 171.439 190.388 169.311 190.388 166.685C190.388 164.06 188.265 161.931 185.646 161.931C183.026 161.931 180.903 164.06 180.903 166.685C180.903 169.311 183.026 171.439 185.646 171.439Z" fill="#F1F1F1"/>
<path d="M188.323 307H353.566C353.681 307 353.792 306.954 353.873 306.873C353.954 306.791 354 306.681 354 306.565C354 306.45 353.954 306.339 353.873 306.258C353.792 306.176 353.681 306.13 353.566 306.13H188.323C188.208 306.13 188.098 306.176 188.016 306.258C187.935 306.339 187.889 306.45 187.889 306.565C187.889 306.681 187.935 306.791 188.016 306.873C188.098 306.954 188.208 307 188.323 307Z" fill="#CBCBCB"/>
<path d="M335.331 79.0152C335.548 77.4709 335.192 75.9005 334.331 74.6015C333.47 73.3025 332.164 72.3652 330.66 71.9672C329.156 71.5692 327.558 71.7382 326.17 72.4421C324.782 73.146 323.699 74.3359 323.128 75.7864L309.719 91.197L313.653 102.213L327.138 84.2064C328.018 84.4889 328.949 84.5747 329.866 84.4575C330.782 84.3403 331.662 84.0231 332.443 83.5282C333.224 83.0332 333.888 82.3726 334.387 81.5929C334.885 80.8132 335.208 79.9333 335.331 79.0152Z" fill="#FFB7B7"/>
<path d="M279.748 138.978L324.259 91.3565L318.255 81.7878L262.427 129.12L279.748 138.978Z" fill="#3F3D56"/>
<path d="M269.814 110.043C278.437 110.043 285.427 103.036 285.427 94.3913C285.427 85.7469 278.437 78.7391 269.814 78.7391C261.191 78.7391 254.2 85.7469 254.2 94.3913C254.2 103.036 261.191 110.043 269.814 110.043Z" fill="#2F2E41"/>
<path d="M271.069 85.5492C274.429 82.1338 278.494 79.4981 282.98 77.8278C285.859 76.7585 288.993 76.0979 292.003 76.7051C295.013 77.3124 297.86 79.4 298.7 82.3607C299.387 84.7817 298.677 87.3884 297.612 89.6674C296.546 91.9465 295.123 94.0598 294.262 96.4239C293.382 98.8361 293.118 101.43 293.492 103.971C293.867 106.511 294.868 108.918 296.406 110.972C297.943 113.027 299.968 114.663 302.297 115.734C304.626 116.805 307.184 117.275 309.74 117.103C306.783 117.501 304.056 118.894 301.165 119.636C298.274 120.377 294.862 120.327 292.714 118.251C290.441 116.054 290.395 112.482 290.505 109.319C290.669 104.617 290.832 99.915 290.996 95.2128C291.079 92.8148 291.15 90.3399 290.287 88.1017C289.425 85.8635 287.374 83.9036 284.981 83.924C283.167 83.9394 281.561 85.041 280.107 86.1274C278.652 87.2139 277.112 88.373 275.305 88.5346C273.498 88.6962 271.435 87.3557 271.571 85.5422L271.069 85.5492Z" fill="#2F2E41"/>
<path d="M210.512 199.488C209.013 199.906 207.414 199.757 206.017 199.071C204.619 198.386 203.522 197.21 202.932 195.767C202.342 194.324 202.3 192.714 202.815 191.242C203.329 189.771 204.365 188.539 205.725 187.782L219.213 172.441L230.622 174.912L214.576 190.668C214.97 191.505 215.177 192.419 215.181 193.346C215.184 194.272 214.986 195.188 214.598 196.029C214.211 196.87 213.644 197.615 212.938 198.213C212.232 198.811 211.404 199.246 210.512 199.488H210.512Z" fill="#FFB7B7"/>
<path d="M254.89 144.567L221.271 186.872L211.023 182.155L250.539 120.483L254.89 144.567Z" fill="#3F3D56"/>
<path d="M228.065 272.309L220.053 272.183L221.016 299.56H228.064L228.065 272.309Z" fill="#FFB7B7"/>
<path d="M229.861 297.253L215.982 297.252H215.982C213.636 297.253 211.386 298.187 209.728 299.85C208.069 301.512 207.137 303.768 207.137 306.119V306.407L229.861 306.408L229.861 297.253Z" fill="#2F2E41"/>
<path d="M281.115 265.048L272.362 270.681L289.87 291.796L295.801 287.98L281.115 265.048Z" fill="#FFB7B7"/>
<path d="M296.07 285.065L284.391 292.582L284.391 292.582C282.417 293.853 281.027 295.857 280.528 298.155C280.028 300.452 280.459 302.855 281.726 304.834L281.882 305.076L301.004 292.769L296.07 285.065Z" fill="#2F2E41"/>
<path d="M284.233 181.452C284.233 181.452 264.786 116.701 258.536 115.826C252.286 114.951 242.216 132.441 242.216 132.441C229.161 149.14 215.698 203.232 215.698 203.232C215.698 203.232 238.141 204.64 254.547 213.39C270.952 222.14 290.313 212.947 290.313 212.947L284.233 181.452Z" fill="#3F3D56"/>
<path opacity="0.1" d="M284.233 181.452C284.233 181.452 264.786 116.701 258.536 115.826C252.286 114.951 244.774 132.618 244.774 132.618C238.268 159.575 215.698 203.232 215.698 203.232C215.698 203.232 238.141 204.64 254.547 213.39C270.952 222.14 290.313 212.947 290.313 212.947L284.233 181.452Z" fill="black"/>
<path d="M268.278 162.079V194.616L272.098 241.748L291.181 277.4L282.073 283.922L256.051 250.009L245.758 216.336L229.594 290.879L217.45 290.009L225.884 186.657L241.889 157.565L268.278 162.079Z" fill="#2F2E41"/>
<path d="M248.67 130.609C242.598 136.696 248.237 143.217 248.237 143.217L241.297 158.869L268.621 166.261L278.17 123.488L271.664 116.531C258.653 116.096 258.646 115.826 258.646 115.826C256.366 118.062 248.67 130.609 248.67 130.609Z" fill="#F9A826"/>
<path d="M279.27 119.056C278.029 118.138 276.619 117.476 275.121 117.108C273.622 116.74 272.066 116.673 270.542 116.912C269.019 117.152 267.557 117.691 266.243 118.501C264.928 119.31 263.787 120.373 262.886 121.627C256.017 131.215 249.665 146.697 258.416 166.006C272.468 197.01 284.696 212.882 289.667 212.88C289.884 212.882 290.1 212.848 290.306 212.78C293.366 211.739 297.79 206.549 298.591 201.974C298.878 200.337 298.81 198.057 296.857 196.491C291.246 191.992 281.175 177.986 278.033 159.55C276.297 149.363 279.664 140.084 282.794 134.093C284.116 131.615 284.503 128.741 283.884 126C283.264 123.259 281.68 120.833 279.421 119.168L279.27 119.056Z" fill="#3F3D56"/>
<path d="M270.617 108.506C276.187 105.454 278.233 98.4529 275.189 92.8694C272.144 87.2859 265.161 85.2339 259.591 88.2861C254.021 91.3383 251.974 98.339 255.019 103.923C258.064 109.506 265.047 111.558 270.617 108.506Z" fill="#FFB7B7"/>
<path d="M248.94 97.5248H265.536L265.707 95.1362L266.557 97.5248H269.113L269.45 92.7907L271.137 97.5248H276.081V97.2903C276.078 93.9944 274.77 90.8346 272.445 88.5041C270.12 86.1736 266.968 84.8626 263.681 84.8589H261.341C258.053 84.8626 254.901 86.1735 252.576 88.5041C250.252 90.8346 248.944 93.9944 248.94 97.2903V97.5248Z" fill="#2F2E41"/>
<path d="M273.574 106.111L280.657 103.807V86.5652H267.279L267.61 86.8967C272.218 91.5101 277.343 107.878 273.574 106.111Z" fill="#2F2E41"/>
</g>
<defs>
<clipPath id="clip0">
<rect width="354" height="270" fill="white" transform="translate(0 37)"/>
</clipPath>
</defs>
</svg>
